<!-- Иконка ярлыка «Прочее» (/misc): первые четыре приложения сетки раздела (Хотелки, Карты, GYM, Музыка) — теми же значками и цветами, что в самом разделе. PNG 180/192/512 — рендер этого файла в Chromium в нужный размер (180 — apple-touch-icon). Содержимое внутри безопасной зоны maskable (радиус 40%). -->
<svg xmlns="http://www.w3.org/2000/svg" viewBox="0 0 1024 1024" width="1024" height="1024">
<defs>
<linearGradient id="bg" x1="0" y1="0" x2="1" y2="1"><stop offset="0" stop-color="#7C4DFF"/><stop offset=".5" stop-color="#E8438E"/><stop offset="1" stop-color="#FF9250"/></linearGradient>
<radialGradient id="glowA" cx="18%" cy="10%" r="70%"><stop offset="0" stop-color="#B58CFF" stop-opacity=".6"/><stop offset="1" stop-color="#B58CFF" stop-opacity="0"/></radialGradient>
<radialGradient id="glowB" cx="92%" cy="96%" r="62%"><stop offset="0" stop-color="#FFD08A" stop-opacity=".5"/><stop offset="1" stop-color="#FFD08A" stop-opacity="0"/></radialGradient>
<linearGradient id="tile" x1="0" y1="0" x2="0" y2="1"><stop offset="0" stop-color="#FFFFFF"/><stop offset="1" stop-color="#E9EBFB"/></linearGradient>
<linearGradient id="rim" x1="0" y1="0" x2="0" y2="1"><stop offset="0" stop-color="#fff" stop-opacity=".9"/><stop offset=".5" stop-color="#fff" stop-opacity="0"/><stop offset="1" stop-color="#8890D8" stop-opacity=".25"/></linearGradient>
<linearGradient id="gl0" gradientUnits="userSpaceOnUse" x1="0" y1="2" x2="0" y2="22"><stop offset="0" stop-color="#FF5C9D"/><stop offset="1" stop-color="#C9115F"/></linearGradient><linearGradient id="gl1" gradientUnits="userSpaceOnUse" x1="0" y1="2" x2="0" y2="22"><stop offset="0" stop-color="#5B96FF"/><stop offset="1" stop-color="#1E48D4"/></linearGradient><linearGradient id="gl2" gradientUnits="userSpaceOnUse" x1="0" y1="2" x2="0" y2="22"><stop offset="0" stop-color="#23D6BD"/><stop offset="1" stop-color="#06796E"/></linearGradient><linearGradient id="gl3" gradientUnits="userSpaceOnUse" x1="0" y1="2" x2="0" y2="22"><stop offset="0" stop-color="#B878FF"/><stop offset="1" stop-color="#6B21D9"/></linearGradient>
<filter id="ts" x="-25%" y="-25%" width="150%" height="165%"><feDropShadow dx="0" dy="18" stdDeviation="20" flood-color="#4A1670" flood-opacity=".42"/></filter>
</defs>
<rect width="1024" height="1024" fill="url(#bg)"/>
<rect width="1024" height="1024" fill="url(#glowA)"/>
<rect width="1024" height="1024" fill="url(#glowB)"/>
<g>
<rect x="205" y="205" width="292" height="292" rx="82" fill="url(#tile)" filter="url(#ts)"/>
<rect x="206.5" y="206.5" width="289" height="289" rx="80.5" fill="none" stroke="url(#rim)" stroke-width="3"/>
<g transform="translate(273 273) scale(6.5)" fill="none" stroke="url(#gl0)" stroke-width="2.3" stroke-linecap="round" stroke-linejoin="round"><path d="M19 14c1.49-1.46 3-3.21 3-5.5A5.5 5.5 0 0 0 16.5 3c-1.76 0-3 .5-4.5 2-1.5-1.5-2.74-2-4.5-2A5.5 5.5 0 0 0 2 8.5c0 2.3 1.5 4.05 3 5.5l7 7Z"/></g>
</g><g>
<rect x="527" y="205" width="292" height="292" rx="82" fill="url(#tile)" filter="url(#ts)"/>
<rect x="528.5" y="206.5" width="289" height="289" rx="80.5" fill="none" stroke="url(#rim)" stroke-width="3"/>
<g transform="translate(595 273) scale(6.5)" fill="none" stroke="url(#gl1)" stroke-width="2.3" stroke-linecap="round" stroke-linejoin="round"><rect width="20" height="14" x="2" y="5" rx="2.4"/><path d="M2 10h20"/><path d="M6 15.2h3.4"/></g>
</g><g>
<rect x="205" y="527" width="292" height="292" rx="82" fill="url(#tile)" filter="url(#ts)"/>
<rect x="206.5" y="528.5" width="289" height="289" rx="80.5" fill="none" stroke="url(#rim)" stroke-width="3"/>
<g transform="translate(273 595) scale(6.5)" fill="none" stroke="url(#gl2)" stroke-width="2.3" stroke-linecap="round" stroke-linejoin="round"><rect x="1.9" y="8" width="2.8" height="8" rx="1.2"/><rect x="5.2" y="4.6" width="3.2" height="14.8" rx="1.5"/><path d="M8.4 12h7.2"/><rect x="15.6" y="4.6" width="3.2" height="14.8" rx="1.5"/><rect x="19.3" y="8" width="2.8" height="8" rx="1.2"/></g>
</g><g>
<rect x="527" y="527" width="292" height="292" rx="82" fill="url(#tile)" filter="url(#ts)"/>
<rect x="528.5" y="528.5" width="289" height="289" rx="80.5" fill="none" stroke="url(#rim)" stroke-width="3"/>
<g transform="translate(595 595) scale(6.5)" fill="none" stroke="url(#gl3)" stroke-width="2.3" stroke-linecap="round" stroke-linejoin="round"><path d="M9 18V5l12-2v13"/><circle cx="6" cy="18" r="3"/><circle cx="18" cy="16" r="3"/></g>
</g>
</svg>
